<?xml version="1.0" encoding="UTF-8" standalone="no"?>
<!DOCTYPE svg PUBLIC "-//W3C//DTD SVG 1.1//EN" "http://www.w3.org/Graphics/SVG/1.1/DTD/svg11.dtd">
<svg width="100%" height="100%" viewBox="0 0 506 367" version="1.1" xmlns="http://www.w3.org/2000/svg" xmlns:xlink="http://www.w3.org/1999/xlink" xml:space="preserve" style="fill-rule:evenodd;clip-rule:evenodd;stroke-linejoin:round;stroke-miterlimit:1.41421;">
    <g transform="matrix(1,0,0,1,-181.012,-510.413)">
        <path d="M531.389,564.674L585.65,510.413L616.948,541.711L281.704,876.955L250.406,845.657L273.369,822.694L200.282,822.694C189.639,822.694 181.012,814.067 181.012,803.424C181.012,802.789 181.012,802.422 181.012,802.422L181.012,584.946C181.012,584.946 181.012,584.579 181.012,583.944C181.012,573.302 189.639,564.674 200.282,564.674L531.389,564.674ZM538.891,715.615L538.891,802.422L598.549,802.422L598.549,715.615L582.453,715.615L582.453,605.784L623.563,564.674L667.072,564.674C677.715,564.674 686.342,573.302 686.342,583.944L686.342,803.424C686.342,814.067 677.715,822.694 667.072,822.694L365.542,822.694L385.814,802.422L395.985,802.422L395.985,792.252L403.848,784.389L403.848,802.422L463.506,802.422L463.506,724.73L471.369,716.867L471.369,802.422L531.028,802.422L531.028,715.615L514.932,715.615L514.932,673.305L554.987,633.25L554.987,715.615L538.891,715.615ZM312.368,584.946L284.901,584.946L284.901,715.615L268.805,715.615L268.805,802.422L293.641,802.422L328.464,767.6L328.464,715.615L312.368,715.615L312.368,584.946ZM244.846,584.946L201.284,584.946L201.284,802.422L260.942,802.422L260.942,715.615L244.846,715.615L244.846,584.946ZM666.071,584.946L622.508,584.946L622.508,715.615L606.412,715.615L606.412,802.422L666.071,802.422L666.071,584.946ZM352.423,584.946L352.423,715.615L336.327,715.615L336.327,759.737L395.985,700.078L395.985,584.946L352.423,584.946ZM487.465,715.615L472.622,715.615L487.465,700.771L487.465,715.615ZM403.848,584.946L403.848,692.215L447.41,648.653L447.41,584.946L403.848,584.946ZM487.465,584.946L487.465,608.598L511.117,584.946L487.465,584.946Z" style="fill:rgb(204,204,204);"/>
    </g>
</svg>
