<?xml version="1.0" encoding="UTF-8" standalone="no"?>
<!DOCTYPE svg PUBLIC "-//W3C//DTD SVG 1.1//EN" "http://www.w3.org/Graphics/SVG/1.1/DTD/svg11.dtd">
<svg width="100%" height="100%" viewBox="0 0 506 259" version="1.1" xmlns="http://www.w3.org/2000/svg" xmlns:xlink="http://www.w3.org/1999/xlink" xml:space="preserve" style="fill-rule:evenodd;clip-rule:evenodd;stroke-linejoin:round;stroke-miterlimit:1.41421;">
    <g transform="matrix(1,0,0,1,-181.012,-564.674)">
        <path d="M686.342,583.946L686.342,803.424C686.342,814.067 677.715,822.694 667.072,822.694C586.926,822.694 280.428,822.694 200.282,822.694C189.639,822.694 181.012,814.067 181.012,803.424C181.012,802.789 181.012,802.422 181.012,802.422L181.012,584.946C181.012,584.946 181.012,584.579 181.012,583.944C181.012,573.302 189.639,564.674 200.282,564.674C280.428,564.674 586.926,564.674 667.072,564.674C677.715,564.674 686.342,573.302 686.342,583.944C686.342,583.945 686.342,583.946 686.342,583.946ZM244.846,584.946L201.284,584.946L201.284,802.422L260.942,802.422L260.942,715.615L244.846,715.615L244.846,584.946ZM312.368,584.946L284.901,584.946L284.901,715.615L268.805,715.615L268.805,802.422L328.464,802.422L328.464,715.615L312.368,715.615L312.368,584.946ZM352.423,584.946L352.423,715.615L336.327,715.615L336.327,802.422L395.985,802.422L395.985,584.946L352.423,584.946ZM447.41,584.946L403.848,584.946L403.848,802.422L463.506,802.422L463.506,715.615L447.41,715.615L447.41,584.946ZM514.932,584.946L487.465,584.946L487.465,715.615L471.369,715.615L471.369,802.422L531.028,802.422L531.028,715.615L514.932,715.615L514.932,584.946ZM582.453,584.946L554.987,584.946L554.987,715.615L538.891,715.615L538.891,802.422L598.549,802.422L598.549,715.615L582.453,715.615L582.453,584.946ZM666.071,584.946L622.508,584.946L622.508,715.615L606.412,715.615L606.412,802.422L666.071,802.422L666.071,584.946Z" style="fill:rgb(204,204,204);"/>
    </g>
</svg>
