<?xml version="1.0" encoding="UTF-8" standalone="no"?>
<!DOCTYPE svg PUBLIC "-//W3C//DTD SVG 1.1//EN" "http://www.w3.org/Graphics/SVG/1.1/DTD/svg11.dtd">
<svg width="100%" height="100%" viewBox="0 0 270 368" version="1.1" xmlns="http://www.w3.org/2000/svg" xmlns:xlink="http://www.w3.org/1999/xlink" xml:space="preserve" style="fill-rule:evenodd;clip-rule:evenodd;stroke-linecap:round;stroke-linejoin:round;stroke-miterlimit:1.41421;">
    <g transform="matrix(1,0,0,1,-279.659,-282.728)">
        <g>
            <g transform="matrix(0.942603,0,0,0.942603,12.3582,-88.6272)">
                <circle cx="360.242" cy="508.752" r="76.665" style="fill:rgb(204,204,204);"/>
            </g>
            <path d="M409.664,326.852C420.847,301.392 446.292,283.594 475.862,283.594C515.746,283.594 548.126,315.974 548.126,355.858C548.126,395.742 515.746,428.122 475.862,428.122C460.572,428.122 446.385,423.364 434.703,415.248C435.884,411.226 436.77,407.118 437.351,402.967C438.619,393.919 438.448,384.668 436.84,375.674C435.408,367.666 432.83,359.87 429.208,352.586C426.891,347.927 424.151,343.479 421.035,339.313C418.039,335.309 414.697,331.565 411.057,328.136C410.598,327.703 410.133,327.274 409.664,326.852Z" style="fill:rgb(204,204,204);stroke-width:1px;stroke:white;"/>
            <g transform="matrix(0.391817,0,0,0.391817,168.549,393.796)">
                <path d="M652.446,655.216L283.578,655.216L283.578,400.983C283.578,299.191 366.22,216.548 468.012,216.548C569.804,216.548 652.446,299.191 652.446,400.983L652.446,655.216Z" style="fill:rgb(204,204,204);"/>
            </g>
            <path d="M409.664,486.836C420.846,461.377 446.292,443.578 475.862,443.578C515.746,443.578 548.126,475.958 548.126,515.842L548.126,615.455L438.188,615.455L438.188,550.886C438.185,549.785 438.167,548.684 438.125,547.583C438.042,545.391 437.875,543.202 437.626,541.023C436.914,534.804 435.522,528.665 433.477,522.749C431.31,516.476 428.41,510.458 424.861,504.85C421.445,499.453 417.429,494.437 412.912,489.92C411.856,488.864 410.773,487.835 409.664,486.836Z" style="fill:rgb(204,204,204);"/>
        </g>
    </g>
</svg>
